<?xml version="1.0" encoding="utf-8"?>
<!-- Generator: Adobe Illustrator 19.0.1, SVG Export Plug-In . SVG Version: 6.00 Build 0)  -->
<svg version="1.1" id="Layer_1" xmlns="http://www.w3.org/2000/svg" xmlns:xlink="http://www.w3.org/1999/xlink" x="0px" y="0px"
	 viewBox="0 0 538.7 221" style="enable-background:new 0 0 538.7 221;" xml:space="preserve">
<style type="text/css">
	.st0{fill:url(#SVGID_1_);}
	.st1{fill:url(#SVGID_2_);}
	.st2{fill:url(#SVGID_3_);}
	.st3{fill:url(#SVGID_4_);}
	.st4{fill:url(#SVGID_5_);}
	.st5{fill:url(#SVGID_6_);}
	.st6{fill:url(#SVGID_7_);}
	.st7{fill:url(#SVGID_8_);}
	.st8{fill:url(#SVGID_9_);}
</style>
<g>
	<g>
		<linearGradient id="SVGID_1_" gradientUnits="userSpaceOnUse" x1="326.726" y1="135.8896" x2="326.726" y2="7.6646">
			<stop  offset="0" style="stop-color:#D9D9D9"/>
			<stop  offset="1" style="stop-color:#FFFFFF"/>
		</linearGradient>
		<path class="st0" d="M345.3,10.2c2,0.3,4,0.6,6,1c12.8,3.1,22.6,10.1,27.8,22.4c5.4,12.6,3.3,24.5-4.9,35.3
			c-1.1,1.5-2.4,2.9-3.7,4.4c0.8,0.9,1.6,1.8,2.4,2.7c6,7.1,9,15.3,8.7,24.5c-0.5,14-9.5,30.1-28.2,33.8c-7.2,1.4-14.5,1.9-21.8,1.9
			c-0.4,0-0.9-0.3-1-0.6c-2.2-7.2-5.5-13.9-9.8-20.1c0-0.1,0-0.1-0.1-0.4c0.5,0,0.9,0,1.3,0c7.3,0,14.6,0,21.8,0
			c9.6-0.1,14.4-7.3,15.7-13.5c1.2-5.9-2.8-14.9-11.5-16.9c-2.2-0.5-4.6-0.9-6.9-0.9c-15.5-0.1-31,0-46.4,0c-0.4,0-0.8,0-1.3,0
			c0,2.8,0,5.5,0,8.5c-7.1-3.3-14.4-5.4-22.1-6.4c0-0.5,0-0.8,0-1.2c0-24.4,0-48.9,0-73.3c0-0.4,0-0.7,0.1-1.1
			C296,10.2,320.7,10.2,345.3,10.2z M293.5,62.6c0.4,0,0.6,0,0.9,0c16.5,0,33,0,49.5,0c1.6,0,3.2-0.3,4.7-0.7
			c5.9-1.7,10.4-7,11-12.8c0.7-6.3-2.9-13.3-8.4-15.7c-3.1-1.3-6.2-2-9.5-2c-15.6,0-31.3,0-46.9,0c-0.4,0-0.8,0-1.3,0
			C293.5,41.8,293.5,52.1,293.5,62.6z"/>
		<linearGradient id="SVGID_2_" gradientUnits="userSpaceOnUse" x1="199.3763" y1="137.1038" x2="200.5591" y2="6.2618">
			<stop  offset="0" style="stop-color:#D9D9D9"/>
			<stop  offset="1" style="stop-color:#FFFFFF"/>
		</linearGradient>
		<path class="st1" d="M218.8,10.2c2.2,0.3,4.4,0.6,6.6,1.1c14,3.3,23.8,11.5,28.3,25.2c6,18.4-3,37-20.3,44.1
			c-0.2,0.1-0.3,0.2-0.5,0.2c2.1,2.8,4.2,5.6,6.2,8.3c-3.5,1.7-6.9,3.1-10.1,4.8c-3.2,1.8-6.2,3.8-9.3,5.8c-1.4-1.7-2.9-3.7-4.5-5.4
			c-5.7-6.2-12.9-9.8-21.3-10.2c-8.7-0.4-17.5-0.3-26.3-0.4c-0.2,0-0.3,0.1-0.6,0.1c0,17.4,0,34.8,0,52.2c-7.4,0-14.6,0-22,0
			c0-0.4-0.1-0.8-0.1-1.3c0-41.2,0-82.3,0-123.5c0-0.4,0.1-0.8,0.1-1.2C169.7,10.2,194.3,10.2,218.8,10.2z M167.2,62.6
			c0.4,0,0.7,0.1,1,0.1c16.5,0,33,0,49.5,0c5.7,0,10.1-2.6,13.1-7.4c5-8,2.1-16.2-4.1-20.7c-3-2.1-6.5-3-10.1-3.1
			c-16.4-0.1-32.7-0.1-49.1-0.1c-0.2,0-0.3,0.1-0.5,0.1C167.2,41.8,167.2,52.1,167.2,62.6z"/>
		<linearGradient id="SVGID_3_" gradientUnits="userSpaceOnUse" x1="69.59" y1="134.5743" x2="69.59" y2="10.3128">
			<stop  offset="0" style="stop-color:#D9D9D9"/>
			<stop  offset="1" style="stop-color:#FFFFFF"/>
		</linearGradient>
		<path class="st2" d="M129.1,10.2c0,0.5,0,1,0,1.4c0,41,0,81.9,0,122.9c0,0.5,0,1,0,1.6c-7.4,0-14.6,0-22.1,0c0-10.9,0-21.8,0-32.9
			c-0.6,0-1,0-1.5,0c-13.7,0-27.4,0-41,0c-1,0-1.5,0.3-2.1,1.1c-7.9,10.2-15.7,20.5-23.6,30.7c-0.7,0.9-1.3,1.2-2.5,1.2
			c-8.8,0-17.6,0-26.4,0c0-0.1,0-0.2,0-0.2c0.2-0.2,0.4-0.3,0.6-0.5c9.4-12.3,18.9-24.5,28.3-36.8c14.2-18.5,28.5-37,42.7-55.5
			c8.5-11,16.9-22,25.4-33C114.4,10.2,121.7,10.2,129.1,10.2z M107,46.9c-0.1,0-0.2-0.1-0.2-0.1C98,58.2,89.3,69.5,80.4,81
			c9,0,17.8,0,26.6,0C107,69.6,107,58.3,107,46.9z"/>
		<linearGradient id="SVGID_4_" gradientUnits="userSpaceOnUse" x1="457.0482" y1="134.5719" x2="457.0482" y2="7.6663">
			<stop  offset="0" style="stop-color:#D9D9D9"/>
			<stop  offset="1" style="stop-color:#FFFFFF"/>
		</linearGradient>
		<path class="st3" d="M419.7,10.2c3.3,4.3,6.6,8.6,9.9,13c16.2,21,32.4,42.1,48.6,63.1c12.5,16.2,24.9,32.4,37.4,48.6
			c0.3,0.4,0.6,0.8,1,1.3c-0.4,0-0.7,0.1-1,0.1c-8.6,0-17.2,0-25.8,0c-0.8,0-1.2-0.3-1.6-0.9c-7.9-10.3-15.8-20.5-23.7-30.8
			c-0.7-0.9-1.4-1.3-2.6-1.3c-13.5,0-27,0-40.4,0c-0.5,0-1,0-1.7,0c0,11,0,21.9,0,32.9c-7.4,0-14.6,0-22,0c0-0.4-0.1-0.8-0.1-1.2
			c0-41.2,0-82.4,0-123.6c0-0.4,0-0.7,0.1-1.1C405,10.2,412.4,10.2,419.7,10.2z M446.3,81.1c-8.9-11.6-17.6-22.9-26.5-34.5
			c0,11.7,0,23.1,0,34.5C428.5,81.1,437.3,81.1,446.3,81.1z"/>
		<linearGradient id="SVGID_5_" gradientUnits="userSpaceOnUse" x1="264.3502" y1="95.9155" x2="264.3502" y2="213.6186">
			<stop  offset="0" style="stop-color:#D6B450"/>
			<stop  offset="0.5172" style="stop-color:#FCEF92"/>
			<stop  offset="1" style="stop-color:#C69737"/>
		</linearGradient>
		<path class="st4" d="M262.1,215.2c-1.9-0.2-3.8-0.4-5.7-0.7c-11.3-1.5-21.3-5.9-29.9-13.3c-13.8-11.8-20.9-26.9-21-45
			c-0.2-26.6,18-50.2,43.8-57c32.3-8.5,65,11,72.5,43.6c7,30.2-10.2,59.3-38.2,69c-5.1,1.8-10.4,2.8-15.8,3.1c-0.3,0-0.7,0.1-1,0.2
			C265.1,215.2,263.6,215.2,262.1,215.2z M285.8,113c0,13.8,0,27.4,0,41c-3.4,0-6.7,0-10.2,0c0-11.6,0-23.1,0-34.6
			c-0.6,0.3-0.9,0.8-1.3,1.2c-8.4,10.9-16.8,21.8-25.1,32.7c-0.5,0.6-0.9,0.9-1.7,0.9c-3.2,0-6.3,0-9.5,0c-0.3,0-0.6-0.1-1.1-0.1
			c11.7-15.2,23.3-30.2,34.9-45.3c-12.7-2.5-32.6,1.1-45.7,18.1c-12.4,16.1-11.8,36.3-5.8,48.6c0.2-0.3,0.5-0.5,0.7-0.8
			c4-5.2,8.1-10.4,12-15.7c0.6-0.8,1.2-1.1,2.2-1.1c25.2,0,50.4,0,75.6,0c0.5,0,1,0,1.6,0c0.3-10.1-2.2-19.3-7.5-27.7
			C300.2,122.8,293.9,117.1,285.8,113z M225.3,184.3c0.3,0.4,0.4,0.6,0.6,0.9c12.5,15.5,28.6,21.5,48.2,18.1
			c1.2-0.2,1.5-0.7,1.5-1.9c0-10.6,0-21.3,0-31.9c0-0.5,0-1,0-1.4c-0.3-0.1-0.4-0.1-0.5-0.1c-12.2,0-24.5,0-36.7,0
			c-0.3,0-0.8,0.2-1,0.5C233.4,173.8,229.4,179,225.3,184.3z M285.8,199.3c13-6.9,21.3-17.2,25.2-31.2c-8.5,0-16.8,0-25.2,0
			C285.8,178.5,285.8,188.8,285.8,199.3z"/>
		<linearGradient id="SVGID_6_" gradientUnits="userSpaceOnUse" x1="102.2875" y1="192.0326" x2="102.2875" y2="107.9946">
			<stop  offset="0" style="stop-color:#D9D9D9"/>
			<stop  offset="1" style="stop-color:#FFFFFF"/>
		</linearGradient>
		<path class="st5" d="M10,145.3c0.6,0,1.1,0,1.7,0c59.8,0,119.5,0,179.3,0c0.5,0,1.1,0,1.8,0c-1.2,9.5-0.7,18.8,1.7,28.1
			c-2.9-0.3-5.5-0.5-8.2-0.8c-5.3-0.5-10.7-1.1-16-1.6c-9.3-0.9-18.6-1.9-27.9-2.8c-8.5-0.8-16.9-1.6-25.4-2.5
			c-11.6-1.2-23.1-2.4-34.7-3.5c-9.1-0.9-18.1-1.8-27.2-2.7c-12.4-1.2-24.8-2.5-37.2-3.8c-2.6-0.3-5.2-0.5-7.9-0.7
			C10,151.7,10,148.5,10,145.3z"/>
		<linearGradient id="SVGID_7_" gradientUnits="userSpaceOnUse" x1="483.7254" y1="48.862" x2="483.7254" y2="0.5506">
			<stop  offset="0" style="stop-color:#D6B450"/>
			<stop  offset="0.5172" style="stop-color:#FCEF92"/>
			<stop  offset="1" style="stop-color:#C69737"/>
		</linearGradient>
		<path class="st6" d="M509.7,10.2c2.7,3.5,5.3,7.1,8,10.6c4.7,6.2,9.5,12.4,14.3,18.5c0.2,0.3,0.5,0.6,0.8,1.1c-0.6,0-1,0-1.4,0
			c-24.1,0-48.2,0-72.3,0c-0.6,0-1.3-0.2-1.6-0.6c-7.6-9.9-15.2-19.7-22.8-29.6C459.6,10.2,484.7,10.2,509.7,10.2z M486.9,33.3
			c-1.9-4.9-3.7-9.7-5.5-14.4c-0.3-0.8-0.8-1.1-1.6-1c-0.8,0.1-1.8-0.3-2.2,1c-1.2,3.3-2.5,6.6-3.8,10c-0.6,1.5-1.1,2.9-1.7,4.4
			c0.2,0.1,0.2,0.1,0.2,0.1c2.8,0.3,2.8,0.4,3.8-2.2c0.2-0.7,0.6-1,1.3-0.9c1.3,0.1,2.6,0.1,4,0c0.8,0,1.2,0.2,1.5,1
			c0.8,2.3,0.9,2.3,3.2,2.2C486.3,33.4,486.5,33.4,486.9,33.3z M500.3,30.5c-2.7,0-5.4,0-7.9,0c0-1.3,0-2.4,0-3.7c1.5,0,2.9,0,4.3,0
			c0-1,0-1.9,0-2.9c-1.5,0-2.9,0-4.3,0c0-1.1,0-2.1,0-3.2c2.5,0,5,0,7.5,0c0-1,0-1.9,0-2.8c-3.5,0-7,0-10.5,0c0,5.2,0,10.3,0,15.4
			c3.7,0,7.3,0,11,0C500.3,32.4,500.3,31.6,500.3,30.5z M470.9,31.8c0-1.1-0.9-1.9-1.9-1.9c-1,0-1.8,0.9-1.8,1.9
			c0,1.1,0.8,1.9,1.9,1.8C470.1,33.6,470.9,32.9,470.9,31.8z"/>
		<linearGradient id="SVGID_8_" gradientUnits="userSpaceOnUse" x1="423.9127" y1="178" x2="423.9127" y2="126.9779">
			<stop  offset="0" style="stop-color:#D9D9D9"/>
			<stop  offset="1" style="stop-color:#FFFFFF"/>
		</linearGradient>
		<path class="st7" d="M331.3,174.5c2.5-9.4,2.9-18.7,1.8-28.1c61.2,0,122.3,0,183.5,0c0,3.2,0,6.3,0,9.5
			C454.9,162.1,393.2,168.3,331.3,174.5z"/>
		<linearGradient id="SVGID_9_" gradientUnits="userSpaceOnUse" x1="479.4825" y1="39.0857" x2="479.4825" y2="10.4999">
			<stop  offset="0" style="stop-color:#D6B450"/>
			<stop  offset="0.5172" style="stop-color:#FCEF92"/>
			<stop  offset="1" style="stop-color:#C69737"/>
		</linearGradient>
		<path class="st8" d="M481.5,27.4c-1.4,0-2.6,0-4,0c0.6-1.7,1.3-3.3,2-5.2C480.2,24.1,480.8,25.7,481.5,27.4z"/>
	</g>
</g>
</svg>
